<?xml version="1.0" encoding="UTF-8" standalone="no"?><!-- Generator: Gravit.io --><svg xmlns="http://www.w3.org/2000/svg" xmlns:xlink="http://www.w3.org/1999/xlink" style="isolation:isolate" viewBox="0 0 48 48" width="48pt" height="48pt"><defs><clipPath id="_clipPath_qAckuYnfijRrQ5jSJ4hMPdG9qxiajvOn"><rect width="48" height="48"/></clipPath></defs><g clip-path="url(#_clipPath_qAckuYnfijRrQ5jSJ4hMPdG9qxiajvOn)"><defs><linearGradient id="_lgradient_0" x1="0.02550419894869313" y1="0.9964622511010637" x2="1.5792869934727354" y2="-0.2499045938635247"><stop offset="0%" style="stop-color:#FFDD00"/><stop offset="98.69565217391305%" style="stop-color:rgba(255,0,85,0.996078)"/></linearGradient></defs><path d="M 3.902 7 L 44.098 7 C 45.148 7 46 7.852 46 8.902 L 46 39.098 C 46 40.148 45.148 41 44.098 41 L 3.902 41 C 2.852 41 2 40.148 2 39.098 L 2 8.902 C 2 7.852 2.852 7 3.902 7 Z" style="stroke:none;fill:url(#_lgradient_0);stroke-miterlimit:10;"/><g opacity="0.3"><path d=" M 2 35.402 L 2 39.207 C 2 39.905 2.661 41 3.902 41 L 44.098 41 C 45.181 41 46 40.184 46 39.047 L 46 35.402 C 46 37.352 45.152 38.922 44.098 38.922 L 3.902 38.922 C 2.848 38.922 2 37.352 2 35.402 L 2 35.402 Z " fill="rgb(0,0,0)"/></g><g opacity="0.74"><path d=" M 3.902 7 C 2.813 7 2 7.792 2 9.044 L 2 10.362 C 2 9.026 2.848 7.95 3.902 7.95 L 44.098 7.95 C 45.152 7.95 46 9.026 46 10.362 L 46 8.966 C 46 7.63 45.152 7 44.098 7 L 3.902 7 Z " fill="rgb(0,0,0)"/></g><path d="M 18.901 33.643 L 29.099 33.643 C 30.148 33.643 31 34.431 31 35.402 L 31 35.402 C 31 36.374 30.148 37.162 29.099 37.162 L 18.901 37.162 C 17.852 37.162 17 36.374 17 35.402 L 17 35.402 C 17 34.431 17.852 33.643 18.901 33.643 Z" style="stroke:none;fill:#000000;stroke-miterlimit:10;"/></g></svg>