<?xml version="1.0" encoding="UTF-8" standalone="no"?><!-- Generator: Gravit.io --><svg xmlns="http://www.w3.org/2000/svg" xmlns:xlink="http://www.w3.org/1999/xlink" style="isolation:isolate" viewBox="0 0 16 16" width="16pt" height="16pt"><defs><clipPath id="_clipPath_5LdmTNSqms2s1oxkGpx4xRJ6AtRNifPT"><rect width="16" height="16"/></clipPath></defs><g clip-path="url(#_clipPath_5LdmTNSqms2s1oxkGpx4xRJ6AtRNifPT)"><g><rect x="-0.005" y="0.001" width="15.999" height="16" transform="matrix(1,0,0,1,0,0)" fill="none"/><g><path d="M 7.844 1.513 L 8.15 1.513 C 11.655 1.513 14.501 4.358 14.501 7.864 L 14.501 8.153 C 14.501 11.658 11.655 14.504 8.15 14.504 L 7.844 14.504 C 4.338 14.504 1.493 11.658 1.493 8.153 L 1.493 7.864 C 1.493 4.358 4.338 1.513 7.844 1.513 Z" style="stroke:none;fill:#3D342D;stroke-miterlimit:10;"/><path d="M 7.844 1.513 L 8.15 1.513 C 11.655 1.513 14.501 4.358 14.501 7.864 L 14.501 8.153 C 14.501 11.658 11.655 14.504 8.15 14.504 L 7.844 14.504 C 4.338 14.504 1.493 11.658 1.493 8.153 L 1.493 7.864 C 1.493 4.358 4.338 1.513 7.844 1.513 Z" style="fill:none;stroke:#342D26;stroke-width:1.0000472462236925;stroke-linejoin:round;stroke-miterlimit:2;"/></g></g><g style="mix-blend-mode:normal;" opacity="0.70400002"><path d="M 4.683 7.821 L 11.314 7.821 C 11.899 7.821 12.374 8.232 12.374 8.738 L 12.374 8.738 C 12.374 9.244 11.899 9.655 11.314 9.655 L 4.683 9.655 C 4.098 9.655 3.623 9.244 3.623 8.738 L 3.623 8.738 C 3.623 8.232 4.098 7.821 4.683 7.821 Z" style="stroke:none;fill:#000000;stroke-miterlimit:10;"/></g><path d="M 4.683 7.165 L 11.314 7.165 C 11.899 7.165 12.374 7.576 12.374 8.083 L 12.374 8.083 C 12.374 8.589 11.899 9 11.314 9 L 4.683 9 C 4.098 9 3.623 8.589 3.623 8.083 L 3.623 8.083 C 3.623 7.576 4.098 7.165 4.683 7.165 Z" style="stroke:none;fill:#FFFFFF;stroke-linejoin:round;stroke-miterlimit:2;"/></g></svg>