<?xml version="1.0" encoding="UTF-8" standalone="no"?><!-- Generator: Gravit.io --><svg xmlns="http://www.w3.org/2000/svg" xmlns:xlink="http://www.w3.org/1999/xlink" style="isolation:isolate" viewBox="0 0 16 16" width="16pt" height="16pt"><defs><clipPath id="_clipPath_taN6kxyQ9vOdiDHjGbICQ5xrjGrHaBSj"><rect width="16" height="16"/></clipPath></defs><g clip-path="url(#_clipPath_taN6kxyQ9vOdiDHjGbICQ5xrjGrHaBSj)"><rect x="-0.005" y="0.001" width="15.999" height="16" transform="matrix(1,0,0,1,0,0)" fill="none"/><g><path d="M 7.844 1.513 L 8.15 1.513 C 11.655 1.513 14.501 4.358 14.501 7.864 L 14.501 8.153 C 14.501 11.658 11.655 14.504 8.15 14.504 L 7.844 14.504 C 4.338 14.504 1.493 11.658 1.493 8.153 L 1.493 7.864 C 1.493 4.358 4.338 1.513 7.844 1.513 Z" style="stroke:none;fill:#3D342D;stroke-miterlimit:10;"/><path d="M 7.844 1.513 L 8.15 1.513 C 11.655 1.513 14.501 4.358 14.501 7.864 L 14.501 8.153 C 14.501 11.658 11.655 14.504 8.15 14.504 L 7.844 14.504 C 4.338 14.504 1.493 11.658 1.493 8.153 L 1.493 7.864 C 1.493 4.358 4.338 1.513 7.844 1.513 Z" style="fill:none;stroke:#342E26;stroke-width:1.0000472642344493;stroke-linejoin:round;stroke-miterlimit:2;"/></g></g></svg>