<?xml version="1.0" encoding="UTF-8" standalone="no"?><!-- Generator: Gravit.io --><svg xmlns="http://www.w3.org/2000/svg" xmlns:xlink="http://www.w3.org/1999/xlink" style="isolation:isolate" viewBox="0 0 16 16" width="16pt" height="16pt"><defs><clipPath id="_clipPath_eSZyKIkffJddzVVBQcIY78xlc2EjqQPR"><rect width="16" height="16"/></clipPath></defs><g clip-path="url(#_clipPath_eSZyKIkffJddzVVBQcIY78xlc2EjqQPR)"><rect x="0.998" y="0.99" width="14" height="13.978" transform="matrix(1,0,0,1,0,0)" fill="none"/><path d=" M 7.998 14.118 C 4.615 14.118 1.873 11.381 1.873 8.003 C 1.873 4.626 4.615 1.888 7.998 1.888 C 11.381 1.888 14.123 4.626 14.123 8.003 C 14.123 11.38 11.381 14.118 7.998 14.118 Z " fill="rgb(255,255,255)"/><path d=" M 7.998 1.014 C 4.132 1.014 0.998 4.143 0.998 8.003 C 0.998 11.863 4.132 14.992 7.998 14.992 C 11.864 14.992 14.998 11.863 14.998 8.003 C 14.998 4.143 11.864 1.014 7.998 1.014 Z " fill="rgb(255,119,0)"/><g opacity="0.05"><path d=" M 7.998 1.014 C 4.132 1.014 0.998 4.143 0.998 8.003 C 0.998 11.863 4.132 14.992 7.998 14.992 C 11.864 14.992 14.998 11.863 14.998 8.003 C 14.998 4.143 11.864 1.014 7.998 1.014 Z  M 7.998 1.888 C 11.381 1.888 14.123 4.626 14.123 8.003 C 14.123 11.381 11.381 14.119 7.998 14.119 C 4.615 14.119 1.873 11.381 1.873 8.003 C 1.873 4.626 4.615 1.888 7.998 1.888 Z " fill="rgb(255,119,0)"/></g><path d=" M 8.045 1.014 C 4.179 1.014 1.045 4.143 1.045 8.003 C 1.045 8.15 1.058 8.295 1.067 8.44 C 1.294 4.784 4.327 1.888 8.045 1.888 C 11.763 1.888 14.796 4.784 15.023 8.44 C 15.032 8.295 15.045 8.15 15.045 8.003 C 15.045 4.143 11.911 1.014 8.045 1.014 L 8.045 1.014 Z " fill="rgb(255,94,0)"/><g style="mix-blend-mode:normal;" opacity="0.704"><path d="M 4.683 7.738 L 11.314 7.738 C 11.899 7.738 12.374 8.149 12.374 8.656 L 12.374 8.656 C 12.374 9.162 11.899 9.573 11.314 9.573 L 4.683 9.573 C 4.098 9.573 3.623 9.162 3.623 8.656 L 3.623 8.656 C 3.623 8.149 4.098 7.738 4.683 7.738 Z" style="stroke:none;fill:#000000;stroke-miterlimit:10;"/></g><path d="M 4.683 7.083 L 11.314 7.083 C 11.899 7.083 12.374 7.494 12.374 8 L 12.374 8 C 12.374 8.507 11.899 8.918 11.314 8.918 L 4.683 8.918 C 4.098 8.918 3.623 8.507 3.623 8 L 3.623 8 C 3.623 7.494 4.098 7.083 4.683 7.083 Z" style="stroke:none;fill:#FFFFFF;stroke-miterlimit:10;"/></g></svg>