<?xml version="1.0" encoding="UTF-8" standalone="no"?><!-- Generator: Gravit.io --><svg xmlns="http://www.w3.org/2000/svg" xmlns:xlink="http://www.w3.org/1999/xlink" style="isolation:isolate" viewBox="0 0 32 32" width="32pt" height="32pt"><defs><clipPath id="_clipPath_CpnijV3O7ikzLnyZcsLcdLtfRTrqWAGw"><rect width="32" height="32"/></clipPath></defs><g clip-path="url(#_clipPath_CpnijV3O7ikzLnyZcsLcdLtfRTrqWAGw)"><g style="mix-blend-mode:normal;" opacity="0.508"><path d="M 15.694 3.008 L 16.306 3.008 C 23.317 3.008 29.009 8.7 29.009 15.711 L 29.009 16.289 C 29.009 23.3 23.317 28.992 16.306 28.992 L 15.694 28.992 C 8.683 28.992 2.991 23.3 2.991 16.289 L 2.991 15.711 C 2.991 8.7 8.683 3.008 15.694 3.008 Z" style="stroke:none;fill:#3D342D;stroke-miterlimit:10;"/><path d="M 15.694 3.008 L 16.306 3.008 C 23.317 3.008 29.009 8.7 29.009 15.711 L 29.009 16.289 C 29.009 23.3 23.317 28.992 16.306 28.992 L 15.694 28.992 C 8.683 28.992 2.991 23.3 2.991 16.289 L 2.991 15.711 C 2.991 8.7 8.683 3.008 15.694 3.008 Z" style="fill:none;stroke:#342D26;stroke-width:2.0001390537474752;stroke-linejoin:round;stroke-miterlimit:2;"/></g></g></svg>