<?xml version="1.0" encoding="UTF-8" standalone="no"?><!-- Generator: Gravit.io --><svg xmlns="http://www.w3.org/2000/svg" xmlns:xlink="http://www.w3.org/1999/xlink" style="isolation:isolate" viewBox="0 0 16 16" width="16pt" height="16pt"><defs><clipPath id="_clipPath_o8gQhU6HNQ29Rm98dMpVqfRuf6e42jbl"><rect width="16" height="16"/></clipPath></defs><g clip-path="url(#_clipPath_o8gQhU6HNQ29Rm98dMpVqfRuf6e42jbl)"><rect x="1.018" y="1.006" width="13.981" height="13.967" transform="matrix(1,0,0,1,0,0)" fill="none"/><path d=" M 7.992 0.973 C 4.131 0.973 1.002 4.1 1.002 7.957 C 1.002 11.814 4.131 14.94 7.992 14.94 C 11.852 14.94 14.982 11.814 14.982 7.957 C 14.982 4.1 11.852 0.973 7.992 0.973 Z " fill="rgb(255,119,0)"/><g opacity="0.70099996"><path d=" M 10.613 8.83 C 10.613 10.276 9.44 11.448 7.992 11.448 C 6.544 11.448 5.37 10.276 5.37 8.83 C 5.37 7.383 6.544 6.211 7.992 6.211 C 9.44 6.211 10.613 7.383 10.613 8.83 Z " fill="rgb(0,0,0)"/></g><path d=" M 10.613 7.954 C 10.613 9.4 9.44 10.573 7.992 10.573 C 6.544 10.573 5.37 9.4 5.37 7.954 C 5.37 6.508 6.544 5.335 7.992 5.335 C 9.44 5.335 10.613 6.508 10.613 7.954 Z " fill="rgb(255,255,255)"/><path d=" M 7.992 0.973 C 4.131 0.973 1.002 4.1 1.002 7.957 C 1.002 8.104 1.015 8.248 1.024 8.393 C 1.25 4.741 4.279 1.846 7.992 1.846 C 11.705 1.846 14.733 4.741 14.96 8.393 C 14.969 8.248 14.982 8.104 14.982 7.957 C 14.982 4.1 11.852 0.973 7.992 0.973 L 7.992 0.973 Z " fill="rgb(255,94,0)"/></g></svg>