<?xml version="1.0" standalone="no"?><!-- Generator: Gravit.io --><svg xmlns="http://www.w3.org/2000/svg" xmlns:xlink="http://www.w3.org/1999/xlink" style="isolation:isolate" viewBox="0 0 16 16" width="16px" height="16px"><defs><clipPath id="_clipPath_27ji421Ehw1QQc2LOD0JdR4qbK1TzwC1"><rect width="16" height="16"/></clipPath></defs><g clip-path="url(#_clipPath_27ji421Ehw1QQc2LOD0JdR4qbK1TzwC1)"><path d="M 3.859 0.979 L 12.142 0.979 C 13.72 0.979 15.001 2.259 15.001 3.837 L 15.001 12.12 C 15.001 13.698 13.72 14.979 12.142 14.979 L 3.859 14.979 C 2.281 14.979 1 13.698 1 12.12 L 1 3.837 C 1 2.259 2.281 0.979 3.859 0.979 Z" style="stroke:none;fill:#683E00;stroke-miterlimit:10;"/><path d="M 4.41 1.905 L 11.589 1.905 C 12.956 1.905 14.066 3.015 14.066 4.383 L 14.066 11.561 C 14.066 12.929 12.956 14.039 11.589 14.039 L 4.41 14.039 C 3.043 14.039 1.933 12.929 1.933 11.561 L 1.933 4.383 C 1.933 3.015 3.043 1.905 4.41 1.905 Z" style="stroke:none;fill:#462A00;stroke-miterlimit:10;"/><path d=" M 11.145 3.841 C 10.911 3.882 10.678 4.03 10.533 4.243 L 6.77 9.756 L 5.341 8.327 C 4.976 7.962 4.393 7.962 4.028 8.327 C 3.664 8.691 3.664 9.275 4.028 9.639 L 6.099 11.71 L 6.245 11.856 C 6.284 11.895 6.314 11.94 6.362 11.972 C 6.398 11.997 6.44 12.012 6.478 12.031 C 6.526 12.054 6.574 12.074 6.624 12.089 C 6.653 12.098 6.683 12.112 6.712 12.118 C 6.73 12.122 6.751 12.116 6.77 12.118 C 6.849 12.128 6.925 12.128 7.003 12.118 C 7.082 12.108 7.162 12.09 7.237 12.06 C 7.354 12.014 7.465 11.949 7.558 11.856 C 7.596 11.816 7.642 11.786 7.674 11.739 L 12.078 5.293 C 12.37 4.868 12.27 4.272 11.845 3.981 C 11.632 3.835 11.379 3.791 11.145 3.835 L 11.145 3.841 Z " fill="rgb(211,218,227)"/></g></svg>