<?xml version="1.0" standalone="no"?><!-- Generator: Gravit.io --><svg xmlns="http://www.w3.org/2000/svg" xmlns:xlink="http://www.w3.org/1999/xlink" style="isolation:isolate" viewBox="0 0 40 40" width="40px" height="40px"><defs><clipPath id="_clipPath_ZL9ZsU9ZtNOx3SO2MPZPsA5VE9VTp2qK"><rect width="40" height="40"/></clipPath></defs><g clip-path="url(#_clipPath_ZL9ZsU9ZtNOx3SO2MPZPsA5VE9VTp2qK)"><rect x="0" y="0" width="39.999" height="39.999" transform="matrix(1,0,0,1,0,0)" fill="none"/><defs><linearGradient id="_lgradient_22" x1="0" y1="0.5" x2="1" y2="0.5"><stop offset="0%" style="stop-color:#FF353C"/><stop offset="100%" style="stop-color:#C86400"/></linearGradient></defs><path d="M 9.349 1.999 L 30.649 1.999 C 34.706 1.999 37.999 5.293 37.999 9.349 L 37.999 30.649 C 37.999 34.706 34.706 37.999 30.649 37.999 L 9.349 37.999 C 5.293 37.999 1.999 34.706 1.999 30.649 L 1.999 9.349 C 1.999 5.293 5.293 1.999 9.349 1.999 Z" style="stroke:none;fill:url(#_lgradient_22);stroke-miterlimit:10;"/><defs><linearGradient id="_lgradient_23" x1="0" y1="0.5" x2="1" y2="0.5"><stop offset="0%" style="stop-color:#CD3B40"/><stop offset="100%" style="stop-color:#FA7C00"/></linearGradient></defs><path d="M 10.327 3.931 L 29.498 3.931 C 33.149 3.931 36.113 6.895 36.113 10.546 L 36.113 29.716 C 36.113 33.367 33.149 36.331 29.498 36.331 L 10.327 36.331 C 6.677 36.331 3.713 33.367 3.713 29.716 L 3.713 10.546 C 3.713 6.895 6.677 3.931 10.327 3.931 Z" style="stroke:none;fill:url(#_lgradient_23);stroke-miterlimit:10;"/><path d=" M 28 9.487 C 27.399 9.599 26.8 9.99 26.425 10.537 L 16.75 24.71 L 13.075 21.044 C 12.138 20.106 10.638 20.106 9.7 21.044 C 8.763 21.981 8.763 23.481 9.7 24.419 L 15.025 29.744 L 15.4 30.119 C 15.501 30.218 15.578 30.335 15.7 30.419 C 15.794 30.483 15.901 30.52 16 30.569 C 16.123 30.629 16.246 30.681 16.375 30.719 C 16.448 30.742 16.526 30.779 16.6 30.794 C 16.647 30.805 16.702 30.786 16.75 30.794 C 16.953 30.82 17.147 30.82 17.35 30.794 C 17.553 30.767 17.758 30.722 17.95 30.644 C 18.251 30.524 18.538 30.359 18.775 30.119 C 18.875 30.018 18.992 29.94 19.075 29.819 L 30.4 13.243 C 31.149 12.149 30.894 10.618 29.8 9.868 C 29.253 9.494 28.601 9.381 28 9.493 L 28 9.487 Z " fill="rgb(233,241,252)"/></g></svg>