<?xml version="1.0" standalone="no"?><!-- Generator: Gravit.io --><svg xmlns="http://www.w3.org/2000/svg" xmlns:xlink="http://www.w3.org/1999/xlink" style="isolation:isolate" viewBox="0 0 32 32" width="32px" height="32px"><defs><clipPath id="_clipPath_aRBxJZ5nySTX9L43fouUCAoKISKOlzE2"><rect width="32" height="32"/></clipPath></defs><g clip-path="url(#_clipPath_aRBxJZ5nySTX9L43fouUCAoKISKOlzE2)"><path d="M 7.717 2.026 L 24.284 2.026 C 27.439 2.026 30 4.588 30 7.743 L 30 24.31 C 30 27.465 27.439 30.026 24.284 30.026 L 7.717 30.026 C 4.562 30.026 2 27.465 2 24.31 L 2 7.743 C 2 4.588 4.562 2.026 7.717 2.026 Z" style="stroke:none;fill:#462A00;stroke-miterlimit:10;"/><path d="M 8.821 3.893 L 23.179 3.893 C 25.914 3.893 28.134 6.113 28.134 8.847 L 28.134 23.205 C 28.134 25.94 25.914 28.16 23.179 28.16 L 8.821 28.16 C 6.087 28.16 3.867 25.94 3.867 23.205 L 3.867 8.847 C 3.867 6.113 6.087 3.893 8.821 3.893 Z" style="stroke:none;fill:#683E00;stroke-miterlimit:10;"/><g opacity="0.2"><path d=" M 8.825 3.893 C 6.08 3.893 3.867 6.107 3.867 8.851 L 3.867 10.718 C 3.867 7.973 6.08 5.76 8.825 5.76 L 23.175 5.76 C 25.92 5.76 28.134 7.973 28.134 10.718 L 28.134 8.851 C 28.134 6.107 25.92 3.893 23.175 3.893 L 8.825 3.893 Z " fill="rgb(45,50,61)"/></g></g></svg>