<?xml version="1.0" standalone="no"?><!-- Generator: Gravit.io --><svg xmlns="http://www.w3.org/2000/svg" xmlns:xlink="http://www.w3.org/1999/xlink" style="isolation:isolate" viewBox="0 0 16 16" width="16px" height="16px"><defs><clipPath id="_clipPath_rLyfFdZG8xTcslwnonG8StFI2fxAFWdC"><rect width="16" height="16"/></clipPath></defs><g clip-path="url(#_clipPath_rLyfFdZG8xTcslwnonG8StFI2fxAFWdC)"><rect x="1.001" y="1.036" width="13.942" height="13.942" transform="matrix(1,0,0,1,0,0)" fill="none"/><defs><linearGradient id="_lgradient_34" x1="0" y1="0.5" x2="1" y2="0.5"><stop offset="0%" style="stop-color:#FF353C"/><stop offset="98.69565217391305%" style="stop-color:#C86400"/></linearGradient></defs><path d="M 3.905 0.979 L 12.155 0.979 C 13.726 0.979 15.001 2.254 15.001 3.825 L 15.001 12.075 C 15.001 13.646 13.726 14.921 12.155 14.921 L 3.905 14.921 C 2.334 14.921 1.059 13.646 1.059 12.075 L 1.059 3.825 C 1.059 2.254 2.334 0.979 3.905 0.979 Z" style="stroke:none;fill:url(#_lgradient_34);stroke-miterlimit:10;"/><defs><linearGradient id="_lgradient_35" x1="0" y1="0.5" x2="1" y2="0.5"><stop offset="0%" style="stop-color:#CD3B40"/><stop offset="98.69565217391305%" style="stop-color:#FA7C00"/></linearGradient></defs><path d="M 4.455 1.91 L 11.604 1.91 C 12.966 1.91 14.071 3.016 14.071 4.377 L 14.071 11.526 C 14.071 12.888 12.966 13.993 11.604 13.993 L 4.455 13.993 C 3.094 13.993 1.988 12.888 1.988 11.526 L 1.988 4.377 C 1.988 3.016 3.094 1.91 4.455 1.91 Z" style="stroke:none;fill:url(#_lgradient_35);stroke-miterlimit:10;"/><path d="M 4.728 7.04 L 11.332 7.04 C 11.914 7.04 12.387 7.45 12.387 7.955 L 12.387 7.955 C 12.387 8.46 11.914 8.87 11.332 8.87 L 4.728 8.87 C 4.146 8.87 3.673 8.46 3.673 7.955 L 3.673 7.955 C 3.673 7.45 4.146 7.04 4.728 7.04 Z" style="stroke:none;fill:#E9F1FC;stroke-miterlimit:10;"/></g></svg>