<?xml version="1.0" standalone="no"?><!-- Generator: Gravit.io --><svg xmlns="http://www.w3.org/2000/svg" xmlns:xlink="http://www.w3.org/1999/xlink" style="isolation:isolate" viewBox="0 0 16 16" width="16px" height="16px"><defs><clipPath id="_clipPath_3syI8Jb9B0tWt6sNYPbHWRvCLbV7pzLG"><rect width="16" height="16"/></clipPath></defs><g clip-path="url(#_clipPath_3syI8Jb9B0tWt6sNYPbHWRvCLbV7pzLG)"><g style="opacity:0.664;"><g style="mix-blend-mode:normal;" opacity="0.664"><path d="M 14.125 2.727 L 14.125 13.227 C 14.125 13.71 13.733 14.102 13.25 14.102 L 2.75 14.102 C 2.267 14.102 1.875 13.71 1.875 13.227 L 1.875 2.727 C 1.875 2.244 2.267 1.852 2.75 1.852 L 13.25 1.852 C 13.733 1.852 14.125 2.244 14.125 2.727 Z" style="stroke:none;fill:#FFFFFF;stroke-miterlimit:10;"/></g><g style="mix-blend-mode:normal;" opacity="0.664"><path d="M 3.858 0.983 L 12.142 0.983 C 13.719 0.983 15 2.263 15 3.841 L 15 12.124 C 15 13.702 13.719 14.983 12.142 14.983 L 3.858 14.983 C 2.281 14.983 1 13.702 1 12.124 L 1 3.841 C 1 2.263 2.281 0.983 3.858 0.983 Z" style="stroke:none;fill:#462A00;stroke-miterlimit:10;"/></g><g style="mix-blend-mode:normal;" opacity="0.664"><path d="M 4.411 1.928 L 11.59 1.928 C 12.957 1.928 14.067 3.038 14.067 4.405 L 14.067 11.584 C 14.067 12.951 12.957 14.061 11.59 14.061 L 4.411 14.061 C 3.043 14.061 1.933 12.951 1.933 11.584 L 1.933 4.405 C 1.933 3.038 3.043 1.928 4.411 1.928 Z" style="stroke:none;fill:#683E00;stroke-miterlimit:10;opacity:0.6;"/></g></g></g></svg>