<?xml version="1.0" standalone="no"?><!-- Generator: Gravit.io --><svg xmlns="http://www.w3.org/2000/svg" xmlns:xlink="http://www.w3.org/1999/xlink" style="isolation:isolate" viewBox="0 0 16 16" width="16px" height="16px"><defs><clipPath id="_clipPath_gryIo9sV1kqzsFO7Anahe6QR54zcWH1J"><rect width="16" height="16"/></clipPath></defs><g clip-path="url(#_clipPath_gryIo9sV1kqzsFO7Anahe6QR54zcWH1J)"><defs><linearGradient id="_lgradient_0" x1="0.08984365344238085" y1="0.09375023485742681" x2="0.984288069935437" y2="0.9243057644581217"><stop offset="2.1739130434782608%" style="stop-color:#CD3B40"/><stop offset="97.82608695652173%" style="stop-color:#FA7C00"/></linearGradient></defs><path d="M 3.267 0 L 12.733 0 C 14.536 0 16 1.464 16 3.267 L 16 12.733 C 16 14.536 14.536 16 12.733 16 L 3.267 16 C 1.464 16 0 14.536 0 12.733 L 0 3.267 C 0 1.464 1.464 0 3.267 0 Z" style="stroke:none;fill:url(#_lgradient_0);stroke-miterlimit:10;"/><path d=" M 11.594 3.272 C 11.327 3.322 11.061 3.495 10.894 3.738 L 6.594 10.038 L 4.961 8.405 C 4.544 7.988 3.878 7.988 3.461 8.405 C 3.044 8.822 3.044 9.488 3.461 9.905 L 5.828 12.272 L 5.994 12.438 C 6.039 12.483 6.074 12.535 6.128 12.572 C 6.17 12.6 6.217 12.616 6.261 12.638 C 6.316 12.665 6.37 12.688 6.428 12.705 C 6.46 12.715 6.495 12.732 6.528 12.738 C 6.549 12.742 6.573 12.735 6.594 12.738 C 6.684 12.75 6.771 12.75 6.861 12.738 C 6.951 12.727 7.042 12.706 7.128 12.672 C 7.262 12.619 7.389 12.545 7.494 12.438 C 7.539 12.393 7.591 12.359 7.628 12.305 L 12.661 4.938 C 12.994 4.452 12.881 3.771 12.394 3.438 C 12.151 3.272 11.862 3.222 11.594 3.272 L 11.594 3.272 Z " fill="rgb(233,241,252)"/></g></svg>