<?xml version="1.0" encoding="UTF-8" standalone="no"?><!-- Generator: Gravit.io --><svg xmlns="http://www.w3.org/2000/svg" xmlns:xlink="http://www.w3.org/1999/xlink" style="isolation:isolate" viewBox="0 0 36 36" width="36pt" height="36pt"><defs><clipPath id="_clipPath_cfNMhhCup6hlfWVy6IhTgkCtANffGZBO"><rect width="36" height="36"/></clipPath></defs><g clip-path="url(#_clipPath_cfNMhhCup6hlfWVy6IhTgkCtANffGZBO)"><path d=" M 23.051 5.494 L 28.663 15.213 L 34.274 24.932 C 37.02 29.689 34.791 33.551 29.298 33.551 L 18.075 33.551 L 6.853 33.551 C 1.36 33.551 -0.87 29.689 1.876 24.932 L 7.488 15.213 L 13.099 5.494 C 15.846 0.737 20.305 0.737 23.051 5.494 Z " fill="rgb(108,0,0)"/><g opacity="0.3"><path d=" M 22.295 16.83 L 22.295 16.83 C 21.906 16.441 21.273 16.442 20.883 16.832 L 18 19.715 L 15.117 16.832 C 14.727 16.442 14.094 16.441 13.705 16.83 L 13.705 16.83 C 13.316 17.219 13.317 17.852 13.707 18.242 L 16.59 21.125 L 13.707 24.008 C 13.317 24.398 13.316 25.031 13.705 25.42 L 13.705 25.42 C 14.094 25.809 14.727 25.808 15.117 25.418 L 18 22.535 L 20.883 25.418 C 21.273 25.808 21.906 25.809 22.295 25.42 L 22.295 25.42 C 22.684 25.031 22.683 24.398 22.293 24.008 L 19.41 21.125 L 22.293 18.242 C 22.683 17.852 22.684 17.219 22.295 16.83 Z " fill="rgb(0,0,0)"/></g></g></svg>