<?xml version="1.0" standalone="no"?><!-- Generator: Gravit.io --><svg xmlns="http://www.w3.org/2000/svg" xmlns:xlink="http://www.w3.org/1999/xlink" style="isolation:isolate" viewBox="0 0 16 16" width="16px" height="16px"><defs><clipPath id="_clipPath_OxEcZgeQlSK4rkvfHEBpTBZC5xCAeTQW"><rect width="16" height="16"/></clipPath></defs><g clip-path="url(#_clipPath_OxEcZgeQlSK4rkvfHEBpTBZC5xCAeTQW)"><rect x="1" y="1.058" width="13.942" height="13.942" transform="matrix(1,0,0,1,0,0)" fill="none"/><path d="M 3.905 0.983 L 12.154 0.983 C 13.724 0.983 15 2.258 15 3.829 L 15 12.078 C 15 13.649 13.724 14.924 12.154 14.924 L 3.905 14.924 C 2.334 14.924 1.058 13.649 1.058 12.078 L 1.058 3.829 C 1.058 2.258 2.334 0.983 3.905 0.983 Z" style="stroke:none;fill:#462A00;stroke-miterlimit:10;"/><path d="M 4.455 1.928 L 11.604 1.928 C 12.965 1.928 14.071 3.033 14.071 4.394 L 14.071 11.543 C 14.071 12.905 12.965 14.01 11.604 14.01 L 4.455 14.01 C 3.093 14.01 1.988 12.905 1.988 11.543 L 1.988 4.394 C 1.988 3.033 3.093 1.928 4.455 1.928 Z" style="stroke:none;fill:#683E00;stroke-miterlimit:10;"/><path d="M 4.727 7.03 L 11.331 7.03 C 11.913 7.03 12.386 7.44 12.386 7.945 L 12.386 7.945 C 12.386 8.45 11.913 8.86 11.331 8.86 L 4.727 8.86 C 4.145 8.86 3.672 8.45 3.672 7.945 L 3.672 7.945 C 3.672 7.44 4.145 7.03 4.727 7.03 Z" style="stroke:none;fill:#D3DAE3;stroke-miterlimit:10;"/></g></svg>