<?xml version="1.0" standalone="no"?><!-- Generator: Gravit.io --><svg xmlns="http://www.w3.org/2000/svg" xmlns:xlink="http://www.w3.org/1999/xlink" style="isolation:isolate" viewBox="0 0 32 32" width="32px" height="32px"><defs><clipPath id="_clipPath_5rOSsuWzjB5mDNqbG0ZajdWNUf3RX0Ut"><rect width="32" height="32"/></clipPath></defs><g clip-path="url(#_clipPath_5rOSsuWzjB5mDNqbG0ZajdWNUf3RX0Ut)"><g style="opacity:0.664;"><g style="mix-blend-mode:normal;" opacity="0.664"><path d="M 28.25 5.492 L 28.25 26.491 C 28.25 27.457 27.466 28.241 26.5 28.241 L 5.5 28.241 C 4.534 28.241 3.75 27.457 3.75 26.491 L 3.75 5.492 C 3.75 4.526 4.534 3.742 5.5 3.742 L 26.5 3.742 C 27.466 3.742 28.25 4.526 28.25 5.492 Z" style="stroke:none;fill:#FFFFFF;stroke-miterlimit:10;"/></g><g style="mix-blend-mode:normal;" opacity="0.664"><path d="M 7.717 2.003 L 24.284 2.003 C 27.439 2.003 30 4.565 30 7.72 L 30 24.287 C 30 27.442 27.439 30.003 24.284 30.003 L 7.717 30.003 C 4.562 30.003 2 27.442 2 24.287 L 2 7.72 C 2 4.565 4.562 2.003 7.717 2.003 Z" style="stroke:none;fill:#462A00;stroke-miterlimit:10;"/></g><g style="mix-blend-mode:normal;" opacity="0.664"><path d="M 8.821 3.893 L 23.179 3.893 C 25.914 3.893 28.134 6.113 28.134 8.847 L 28.134 23.205 C 28.134 25.94 25.914 28.16 23.179 28.16 L 8.821 28.16 C 6.087 28.16 3.867 25.94 3.867 23.205 L 3.867 8.847 C 3.867 6.113 6.087 3.893 8.821 3.893 Z" style="stroke:none;fill:#683E00;stroke-miterlimit:10;opacity:0.6;"/></g></g></g></svg>