<?xml version="1.0" standalone="no"?><!-- Generator: Gravit.io --><svg xmlns="http://www.w3.org/2000/svg" xmlns:xlink="http://www.w3.org/1999/xlink" style="isolation:isolate" viewBox="0 0 32 32" width="32px" height="32px"><defs><clipPath id="_clipPath_6oE44DYl4jDDY2Z5YNsWCSkJkuKl7kTw"><rect width="32" height="32"/></clipPath></defs><g clip-path="url(#_clipPath_6oE44DYl4jDDY2Z5YNsWCSkJkuKl7kTw)"><path d="M 7.717 2.003 L 24.284 2.003 C 27.439 2.003 30 4.565 30 7.72 L 30 24.287 C 30 27.442 27.439 30.003 24.284 30.003 L 7.717 30.003 C 4.562 30.003 2 27.442 2 24.287 L 2 7.72 C 2 4.565 4.562 2.003 7.717 2.003 Z" style="stroke:none;fill:#683E00;stroke-miterlimit:10;"/><path d="M 8.821 3.893 L 23.179 3.893 C 25.913 3.893 28.133 6.113 28.133 8.847 L 28.133 23.205 C 28.133 25.94 25.913 28.16 23.179 28.16 L 8.821 28.16 C 6.087 28.16 3.867 25.94 3.867 23.205 L 3.867 8.847 C 3.867 6.113 6.087 3.893 8.821 3.893 Z" style="stroke:none;fill:#462A00;stroke-miterlimit:10;"/><path d=" M 22.29 7.748 C 21.822 7.836 21.357 8.139 21.065 8.565 L 13.54 19.59 L 10.682 16.731 C 9.953 16.002 8.786 16.002 8.057 16.731 C 7.328 17.461 7.328 18.627 8.057 19.356 L 12.199 23.498 L 12.49 23.79 C 12.569 23.867 12.629 23.958 12.724 24.023 C 12.796 24.076 12.88 24.102 12.957 24.14 C 13.052 24.185 13.148 24.227 13.249 24.256 C 13.305 24.271 13.366 24.301 13.423 24.316 C 13.46 24.324 13.503 24.312 13.54 24.316 C 13.698 24.339 13.849 24.339 14.007 24.316 C 14.164 24.294 14.324 24.264 14.473 24.2 C 14.708 24.107 14.931 23.979 15.115 23.792 C 15.193 23.713 15.284 23.653 15.348 23.558 L 24.157 10.666 C 24.74 9.815 24.541 8.624 23.69 8.041 C 23.265 7.75 22.758 7.663 22.29 7.75 L 22.29 7.748 Z " fill="rgb(211,218,227)"/></g></svg>