<?xml version="1.0" standalone="no"?><!-- Generator: Gravit.io --><svg xmlns="http://www.w3.org/2000/svg" xmlns:xlink="http://www.w3.org/1999/xlink" style="isolation:isolate" viewBox="0 0 32 32" width="32px" height="32px"><defs><clipPath id="_clipPath_fl1wZgAGlQwWYe83gD3mb4qghEKDUaBR"><rect width="32" height="32"/></clipPath></defs><g clip-path="url(#_clipPath_fl1wZgAGlQwWYe83gD3mb4qghEKDUaBR)"><rect x="2" y="2.217" width="27.883" height="27.85" transform="matrix(1,0,0,1,0,0)" fill="none"/><path d="M 7.81 2.066 L 24.307 2.066 C 27.449 2.066 30 4.617 30 7.759 L 30 24.223 C 30 27.365 27.449 29.916 24.307 29.916 L 7.81 29.916 C 4.668 29.916 2.117 27.365 2.117 24.223 L 2.117 7.759 C 2.117 4.617 4.668 2.066 7.81 2.066 Z" style="stroke:none;fill:#462A00;stroke-miterlimit:10;"/><path d="M 8.909 3.954 L 23.207 3.954 C 25.93 3.954 28.141 6.165 28.141 8.888 L 28.141 23.157 C 28.141 25.88 25.93 28.09 23.207 28.09 L 8.909 28.09 C 6.186 28.09 3.976 25.88 3.976 23.157 L 3.976 8.888 C 3.976 6.165 6.186 3.954 8.909 3.954 Z" style="stroke:none;fill:#683E00;stroke-miterlimit:10;"/><path d="M 9.455 14.146 L 22.662 14.146 C 23.826 14.146 24.772 14.965 24.772 15.974 L 24.772 15.974 C 24.772 16.983 23.826 17.802 22.662 17.802 L 9.455 17.802 C 8.29 17.802 7.345 16.983 7.345 15.974 L 7.345 15.974 C 7.345 14.965 8.29 14.146 9.455 14.146 Z" style="stroke:none;fill:#D3DAE3;stroke-miterlimit:10;"/></g></svg>