<?xml version="1.0" standalone="no"?><!-- Generator: Gravit.io --><svg xmlns="http://www.w3.org/2000/svg" xmlns:xlink="http://www.w3.org/1999/xlink" style="isolation:isolate" viewBox="0 0 32 32" width="32px" height="32px"><defs><clipPath id="_clipPath_gpUwCcc9XUVK8EjoBFhJetldwCxRJKPs"><rect width="32" height="32"/></clipPath></defs><g clip-path="url(#_clipPath_gpUwCcc9XUVK8EjoBFhJetldwCxRJKPs)"><defs><linearGradient id="_lgradient_20" x1="0.009894145611968441" y1="0.537538774773593" x2="1.009894186106313" y2="0.5375387747735932"><stop offset="0%" style="stop-color:#FF353C"/><stop offset="99.1304347826087%" style="stop-color:#C86400"/></linearGradient></defs><path d="M 7.716 2.02 L 24.283 2.02 C 27.438 2.02 30 4.581 30 7.736 L 30 24.304 C 30 27.459 27.438 30.02 24.283 30.02 L 7.716 30.02 C 4.561 30.02 1.999 27.459 1.999 24.304 L 1.999 7.736 C 1.999 4.581 4.561 2.02 7.716 2.02 Z" style="stroke:none;fill:url(#_lgradient_20);stroke-miterlimit:10;"/><defs><linearGradient id="_lgradient_21" x1="0" y1="0.5" x2="1" y2="0.5"><stop offset="0%" style="stop-color:#CD3B40"/><stop offset="100%" style="stop-color:#FA7C00"/></linearGradient></defs><path d="M 8.82 3.887 L 23.177 3.887 C 25.912 3.887 28.132 6.107 28.132 8.841 L 28.132 23.198 C 28.132 25.933 25.912 28.153 23.177 28.153 L 8.82 28.153 C 6.085 28.153 3.865 25.933 3.865 23.198 L 3.865 8.841 C 3.865 6.107 6.085 3.887 8.82 3.887 Z" style="stroke:none;fill:url(#_lgradient_21);stroke-miterlimit:10;"/><path d=" M 22.29 7.758 C 21.822 7.84 21.356 8.136 21.065 8.562 L 13.54 19.587 L 10.681 16.729 C 9.952 16 8.786 16 8.056 16.729 C 7.327 17.458 7.327 18.625 8.056 19.354 L 12.198 23.495 L 12.49 23.787 C 12.568 23.865 12.628 23.956 12.723 24.02 C 12.796 24.071 12.879 24.099 12.956 24.137 C 13.052 24.184 13.148 24.224 13.248 24.254 C 13.305 24.272 13.366 24.301 13.423 24.312 C 13.46 24.32 13.502 24.307 13.54 24.312 C 13.697 24.332 13.849 24.332 14.006 24.312 C 14.164 24.291 14.323 24.256 14.473 24.195 C 14.707 24.103 14.93 23.974 15.114 23.787 C 15.192 23.708 15.283 23.648 15.348 23.554 L 24.156 10.662 C 24.739 9.811 24.54 8.62 23.689 8.037 C 23.264 7.746 22.757 7.658 22.289 7.745 L 22.29 7.758 Z " fill="rgb(233,241,252)"/></g></svg>