<?xml version="1.0" standalone="no"?><!-- Generator: Gravit.io --><svg xmlns="http://www.w3.org/2000/svg" xmlns:xlink="http://www.w3.org/1999/xlink" style="isolation:isolate" viewBox="0 0 80 80" width="80px" height="80px"><defs><clipPath id="_clipPath_feKI23fvBK9Vv0ugoEVHR7BMCXFdPfkn"><rect width="80" height="80"/></clipPath></defs><g clip-path="url(#_clipPath_feKI23fvBK9Vv0ugoEVHR7BMCXFdPfkn)"><defs><linearGradient id="_lgradient_28" x1="0" y1="0.5" x2="1" y2="0.5"><stop offset="0%" style="stop-color:#FF353C"/><stop offset="98.26086956521739%" style="stop-color:#C86400"/></linearGradient></defs><path d="M 18.71 4.018 L 61.31 4.018 C 69.423 4.018 76.01 10.605 76.01 18.717 L 76.01 61.317 C 76.01 69.43 69.423 76.017 61.31 76.017 L 18.71 76.017 C 10.597 76.017 4.011 69.43 4.011 61.317 L 4.011 18.717 C 4.011 10.605 10.597 4.018 18.71 4.018 Z" style="stroke:none;fill:url(#_lgradient_28);stroke-miterlimit:10;"/><defs><linearGradient id="_lgradient_29" x1="0" y1="0.5" x2="1" y2="0.5"><stop offset="0%" style="stop-color:#CD3B40"/><stop offset="98.26086956521739%" style="stop-color:#FA7C00"/></linearGradient></defs><path d="M 20.84 7.618 L 59.18 7.618 C 66.482 7.618 72.41 13.546 72.41 20.848 L 72.41 59.187 C 72.41 66.489 66.482 72.417 59.18 72.417 L 20.84 72.417 C 13.539 72.417 7.611 66.489 7.611 59.187 L 7.611 20.848 C 7.611 13.546 13.539 7.618 20.84 7.618 Z" style="stroke:none;fill:url(#_lgradient_29);stroke-miterlimit:10;"/><path d=" M 56.185 18.74 C 54.982 18.965 53.784 19.746 53.035 20.84 L 33.685 49.19 L 26.335 41.84 C 24.46 39.964 21.461 39.964 19.585 41.84 C 17.71 43.715 17.71 46.714 19.585 48.59 L 30.235 59.239 L 30.985 59.989 C 31.187 60.189 31.342 60.423 31.585 60.589 C 31.773 60.718 31.987 60.791 32.185 60.889 C 32.43 61.01 32.677 61.113 32.935 61.189 C 33.081 61.233 33.238 61.309 33.385 61.339 C 33.479 61.358 33.589 61.325 33.685 61.339 C 34.09 61.391 34.48 61.391 34.885 61.339 C 35.29 61.287 35.701 61.196 36.085 61.039 C 36.688 60.801 37.261 60.469 37.735 59.989 C 37.935 59.787 38.168 59.632 38.335 59.389 L 60.984 26.239 C 62.483 24.051 61.972 20.988 59.784 19.489 C 58.69 18.74 57.387 18.515 56.184 18.739 L 56.185 18.74 Z " fill="rgb(233,241,252)"/></g></svg>